<svg width="24" height="24" viewBox="0 0 24 24" fill="none" xmlns="http://www.w3.org/2000/svg">
<path d="M11.4 19.4375C11.55 19.5875 11.775 19.6625 12 19.6625C12.225 19.6625 12.4125 19.5875 12.6 19.4375L18.0375 14.15C18.375 13.8125 18.375 13.2875 18.0375 12.95C17.7 12.6125 17.175 12.6125 16.8375 12.95L12.8625 16.85V3.87501C12.8625 3.42501 12.4875 3.01251 12 3.01251C11.55 3.01251 11.1375 3.38751 11.1375 3.87501V16.85L7.16247 12.95C6.82497 12.6125 6.29997 12.65 5.96247 12.95C5.62497 13.2875 5.66247 13.8125 5.96247 14.15L11.4 19.4375Z" fill="white"/>
<path d="M5 22L19 22" stroke="white" stroke-width="2" stroke-linecap="round"/>
</svg>
