<svg width="24" height="24" viewBox="0 0 24 24" fill="none" xmlns="http://www.w3.org/2000/svg">
<path d="M7.96175 23.8431C7.49046 23.8431 7.01653 23.773 6.55236 23.6318C5.3171 23.2562 4.29944 22.4234 3.68668 21.2865C2.49647 19.0712 3.2283 16.2835 5.3524 14.9392C5.69039 14.7635 6.00572 14.5835 6.33107 14.3915C6.05525 14.2298 5.79234 14.0783 5.52232 13.9273C4.21856 13.1742 3.41745 12.1199 3.20249 10.8762C2.91666 9.18782 2.91613 7.05398 5.46779 5.51919C7.53735 4.28209 9.66013 3.07001 11.7131 1.89771C12.3938 1.50914 13.0748 1.12031 13.7555 0.729368C15.0983 -0.0353914 16.7571 -0.0656866 18.1952 0.648492C19.6468 1.36926 20.6355 2.72596 20.8402 4.27761C21.1381 6.26182 20.147 8.24392 18.3739 9.20494C18.1104 9.35379 17.858 9.50052 17.612 9.64725C17.6678 9.68045 17.7226 9.71364 17.7769 9.74631C17.97 9.86275 18.1563 9.97471 18.3465 10.0822C19.8067 10.9041 20.7285 12.2995 20.8752 13.9099C21.0198 15.5011 20.3762 17.0182 19.1096 18.0722C18.7026 18.4031 18.2427 18.6621 17.798 18.9129C17.6663 18.9869 17.5348 19.0612 17.4049 19.1371C15.2987 20.3642 12.8 21.8144 10.2368 23.2643C9.52446 23.6484 8.74705 23.8431 7.96175 23.8431ZM16.0248 0.660611C15.3232 0.660611 14.632 0.836323 14.0169 1.1867C13.3364 1.57737 12.6551 1.96647 11.9742 2.35504C9.9233 3.52628 7.8029 4.73704 5.7386 5.97098C3.93695 7.0545 3.33368 8.49498 3.72146 10.7871C3.95829 12.1565 4.97279 13.0016 5.78233 13.4689C6.17485 13.6884 6.55447 13.9102 6.98176 14.1634C7.06158 14.2108 7.11058 14.2967 7.11084 14.3891C7.11111 14.4821 7.06237 14.5683 6.98281 14.6157C6.50705 14.901 6.07554 15.1568 5.61399 15.3955C3.74227 16.5809 3.09053 19.0638 4.15033 21.0362C4.69644 22.0496 5.60398 22.7923 6.70541 23.1274C7.8079 23.4624 8.97177 23.3468 9.98205 22.8031C12.5379 21.3571 15.0348 19.9079 17.1394 18.6816C17.2716 18.6047 17.4055 18.5293 17.5395 18.454C17.965 18.2142 18.4049 17.9663 18.7751 17.6655C19.9042 16.7258 20.4795 15.3736 20.3507 13.9576C20.2203 12.5224 19.3955 11.2771 18.088 10.5411C17.8931 10.431 17.7029 10.3164 17.5053 10.1976C17.3346 10.0946 17.1581 9.98841 16.9674 9.87855C16.887 9.83219 16.837 9.74683 16.8356 9.6541C16.8343 9.56137 16.882 9.4747 16.961 9.42597C17.3312 9.19809 17.71 8.97496 18.1191 8.74393C19.7021 7.88591 20.5846 6.12141 20.3188 4.35111C20.1365 2.96911 19.2553 1.7631 17.961 1.12031C17.3425 0.813668 16.6792 0.660611 16.0248 0.660611Z" fill="white"/>
<path d="M9.76053 15.7403C9.71522 15.7403 9.66964 15.7284 9.62881 15.705C9.54714 15.6578 9.49683 15.5709 9.49683 15.4769V8.59535C9.49683 8.5013 9.54688 8.41437 9.62854 8.36721C9.70968 8.32006 9.81032 8.32006 9.89198 8.36721L15.8444 11.8001C15.9258 11.847 15.9761 11.9339 15.9761 12.0279C15.9761 12.122 15.9263 12.2089 15.8446 12.2563L9.89251 15.7047C9.85194 15.7284 9.80637 15.7403 9.76053 15.7403ZM10.024 9.05136V15.0195L15.1865 12.0287L10.024 9.05136Z" fill="white"/>
</svg>
